# xmcd
#
# Track frame offsets:
#	150
#	21306
#	43276
#	65111
#	85689
#	106045
#	124137
#	146465
#	176343
#	197763
#	220191
#	250052
#	258007
#
# Disc length: 3588 seconds
#
# Revision: 0
# Processed by: cddbd v1.5.2PL0 Copyright (c) Steve Scherf et al.
# Submitted via: audiograbber 1.83.01
#
DISCID=b30e020d
DTITLE=Various Artist - XMiX Urban and Club Series 168
DYEAR=2012
DGENRE=Hip-Hop
TTITLE0=Bruno Mars - Locked Out Of Heaven
TTITLE1=Future Feat. Lil Wayne - Turn On The Lights
TTITLE2=Nicki Minaj - Va Va Voom
TTITLE3=Flo Rida - I Cry
TTITLE4=Rihanna - Diamonds
TTITLE5=John Hart Feat. Iamsu - Who Booty
TTITLE6=Miguel Feat. Diddy and French Montana - Adorn (Tedsmooth - Bad Boy Remix)
TTITLE7=Juicy J Feat. Lil Wayne and 2 Chainz - Bands A Make Her Dance
TTITLE8=MC Lyte - Cold Rock A Party (Bad Boy Remix)
TTITLE9=Bruno Mars - Locked Out Of Heaven (XMiX Transition 128-144-72 BPM)
TTITLE10=Juicy J Feat. Lil Wayne and 2 Chainz - Bands A Make Her Dance (XMiX Dirt
TTITLE10=y Version)
TTITLE11=Future Feat. Lil Wayne - Turn On The Lights (XMiX Party Break)
TTITLE12=Miguel Feat. Diddy and French Montana - Adorn (XMiX Party Break)
EXTD=
EXTT0=
EXTT1=
EXTT2=
EXTT3=
EXTT4=
EXTT5=
EXTT6=
EXTT7=
EXTT8=
EXTT9=
EXTT10=
EXTT11=
EXTT12=
PLAYORDER=
